PathFileType	4	(X/Y/Z)	61_1_33_p1_0-471_filt_butterworth.trc
DataRate	CameraRate	NumFrames	NumMarkers	Units	OrigDataRate	OrigDataStartFrame	OrigNumFrames
49.0	49.0	6	27	m	49.0	117	471
Frame#	Time	RHip			RKnee			RAnkle			RBigToe			RSmallToe			RHeel			LHip			LKnee			LAnkle			LBigToe			LSmallToe			LHeel			Neck			Head			Nose			RShoulder			RElbow			RWrist			RThumb			RIndex			RPinky			LShoulder			LElbow			LWrist			LThumb			LIndex			LPinky			
		X1	Y1	Z1	X2	Y2	Z2	X3	Y3	Z3	X4	Y4	Z4	X5	Y5	Z5	X6	Y6	Z6	X7	Y7	Z7	X8	Y8	Z8	X9	Y9	Z9	X10	Y10	Z10	X11	Y11	Z11	X12	Y12	Z12	X13	Y13	Z13	X14	Y14	Z14	X15	Y15	Z15	X16	Y16	Z16	X17	Y17	Z17	X18	Y18	Z18	X19	Y19	Z19	X20	Y20	Z20	X21	Y21	Z21	X22	Y22	Z22	X23	Y23	Z23	X24	Y24	Z24	X25	Y25	Z25	X26	Y26	Z26	X27	Y27	Z27	
117	2.3877551020408165	0.31720461720243065	0.6844141100855187	0.9323021823312958	0.3046226624408479	0.7453390134558959	1.3558181680413366	0.28695985756705533	0.9178060916717278	1.7762916528800297	0.3031589693764397	0.7163699244033437	1.8308822059263918	0.36833131793022583	0.7477840324109196	1.8128372103885106	0.2750139927397122	0.981312857371602	1.8318471835852355	0.10971148516135382	0.6740716308487833	0.9405811086522256	0.107709642468907	0.7650497158347364	1.3707747452803727	0.12851837702985583	0.8703898363156017	1.7635413431078804	0.15536484827445085	0.7117819341675571	1.827258622489978	0.08379502494883792	0.7552413432085697	1.8204047507805035	0.15170123175136624	0.9384802580307902	1.8258030556157134	0.21829617161836284	0.4720894263610331	0.5038078214673531	0.1883974798475563	0.2806673110923494	0.27835996482980035	0.18097361616423718	0.2810040140035303	0.44480479153499225	0.3464121898566376	0.4993627133678167	0.5073575108780842	0.33255997198354104	0.4504941500055841	0.7086781745762623	0.25621379061821803	0.20055581981278042	0.6964678347315866	0.24521797163810338	0.06826434067595905	0.6906893582930012	0.24212698550875977	0.04477493693252228	0.7093721753692566	0.2411359243527085	0.07081689993624375	0.7612092033569562	0.06167120856521262	0.5027105106974112	0.5148386239681542	0.06341316676519929	0.49658596506664515	0.7102288424024432	0.16043687323844064	0.2156000925672394	0.7047727531906707	0.24476601508630597	0.06948564766705648	0.6821081235154965	0.2369141949663517	0.048981567314669454	0.6934336258077725	0.21719445689069777	0.09219300882259697	0.7606652824171652
118	2.4081632653061225	0.31739125533289525	0.6843197707857702	0.9327535231327155	0.30471093152901174	0.7456362243471544	1.3562899021077697	0.286964823661045	0.9178177256292235	1.7763353259036507	0.3024286269167193	0.7163360989271021	1.8308851463694378	0.3680847713603643	0.7416087115597835	1.8108901456605282	0.2750430357236195	0.9813506618096016	1.8318634818697712	0.11051655213816108	0.6740169900298182	0.9452119474807448	0.10793520513823962	0.7654140035755371	1.3709891982722306	0.12935482063102852	0.8717531609941447	1.76657628414587	0.15419402145646877	0.7090366871319105	1.8288372620389892	0.0838140144248654	0.7552157948938566	1.8204193090299314	0.1532243630742148	0.9405030238121979	1.8266784902734001	0.2174454574728183	0.4688875448464467	0.5039770973563391	0.18839183460154252	0.2766883291617613	0.28153377809422003	0.1813665530343922	0.2844041312134884	0.44466738578997594	0.3426789594050915	0.49312249241228545	0.5072536840887432	0.33087488798875436	0.450834890256384	0.7075806604038087	0.25987824827388806	0.19847205765619588	0.6969732710596774	0.24930749582319242	0.06951098156509435	0.6909199142585861	0.2497834076079023	0.04827174529013874	0.7118632116865911	0.2503074652838092	0.06752529377482441	0.7637354974439141	0.061631196105873524	0.5021688566181265	0.5172777935560584	0.06514234426493959	0.4932636962205094	0.7141964886735578	0.16393189430187333	0.21900339926517381	0.7107674203358134	0.24285840404523729	0.07681896982520403	0.6811480921331996	0.23543210984954036	0.04843087589287451	0.6970825412106216	0.2302289748790497	0.09078124381020461	0.7638493069871456
119	2.4285714285714284	0.31772077827112044	0.68420816899328	0.9338678453743557	0.30462507346014583	0.7454527941352824	1.3559094111473673	0.2869622549256473	0.9178137255263238	1.7763519866924644	0.3013331246133106	0.7162249269527872	1.8310263444971928	0.3660865648610326	0.7377866393600846	1.8098112271948243	0.275055889127471	0.9813361162680834	1.8317212929854059	0.11131079069557506	0.6740447220852894	0.9506329770686113	0.10782762576382196	0.7651196068436378	1.370703973980957	0.13140569804238453	0.873073767443692	1.7707732823338505	0.1519931960405605	0.7096772188022146	1.8305695386625969	0.08377661035818933	0.7553085076607097	1.8205311473291166	0.15587835969722175	0.9463534372102336	1.8299028541427267	0.21708655714283437	0.4685574626295529	0.503961548537307	0.18965201374377322	0.2746755854306493	0.2846323219457202	0.18264595050756563	0.2934365515626337	0.4455897250115947	0.3402677015146966	0.48741700428326346	0.5079757075735835	0.32944252322392786	0.44685733279088424	0.7104141217372963	0.2547053713655449	0.20017013691026472	0.697863406064818	0.24446566733616026	0.06882426810922686	0.6897341911564887	0.24514514336782672	0.051561807592170564	0.7065601391902123	0.24921819999813544	0.06782657813196814	0.7594277829315732	0.06126991662988636	0.49902480888127443	0.5191750496318498	0.06736857406941472	0.49114001187846895	0.7185899782327319	0.164239925753541	0.22186667408423855	0.7191203337399553	0.2360866715853451	0.08324939964211711	0.6814123126586109	0.2282226155954692	0.044515578139682856	0.6968214761034213	0.23378630937220415	0.09525223834544427	0.7625490736508493
120	2.4489795918367347	0.3178776184964696	0.684167087206209	0.9356277997824496	0.3043729854924812	0.7446362475901822	1.3546055057083701	0.28688046299512004	0.9177384718346931	1.7763177278250308	0.3005856471178956	0.7162027679610053	1.8313152768927718	0.3640984055494862	0.7372463168660486	1.8098498175051936	0.275049264076723	0.9812875511409924	1.8315493610056495	0.11151676638950406	0.6741611281216828	0.952316255958304	0.10770028012092346	0.7642046334473388	1.369265226195773	0.13375245087153162	0.8742553413441039	1.774104542787637	0.1506569361250507	0.7124737684753635	1.830769312857201	0.08374576407897572	0.7554315482063387	1.8206743473272256	0.158149830473562	0.9537484787354975	1.8344606936171461	0.21701641460229426	0.468970565218503	0.5038252789122886	0.19157870470851218	0.2731975922068602	0.2869855393399515	0.18375392904849502	0.2997588514759543	0.4494458666880285	0.3409756966718522	0.4828491283918947	0.5102608250439791	0.32929344369817976	0.4355073014204477	0.7140926262365683	0.24322582211345156	0.2035701566773031	0.6986039538897215	0.2332287319933532	0.06591476667141832	0.6882941379569159	0.22850887080509813	0.054096438032290556	0.6993291758009782	0.2357919124125289	0.06880820208767892	0.755909531055702	0.06070254902195869	0.4943873760194608	0.519358063064232	0.069479493205463	0.49066300329890133	0.7209603635888225	0.1622876933570163	0.22281316328152595	0.7246742882936739	0.22970865006557734	0.08070606540883685	0.6852449391947698	0.21943235895829144	0.03926730685709906	0.6968035028863478	0.22415233474981022	0.10465584481094004	0.75905594019777
121	2.4693877551020407	0.3176706176503159	0.6841971595707231	0.9369683209935322	0.30404019974149765	0.7434499705401109	1.3528257952214087	0.28676358193228746	0.9176122424616829	1.776239371525626	0.3008955202341856	0.7165564915094677	1.831642694396741	0.36369518042600524	0.7389813949356728	1.8105578931881623	0.2750212733025795	0.9812490458299608	1.8313707019328687	0.11037973481957637	0.6743594915540501	0.9493141863796895	0.10750706857887346	0.7629624001503548	1.3671624843291705	0.13494943665055636	0.8750142964149227	1.7743804089110846	0.15075825289248582	0.7173548526451363	1.8314818608907117	0.08374918051062016	0.7554559467416914	1.8207670668592928	0.15906756788419774	0.9582571618051514	1.8374771699872277	0.216937794590179	0.46912424093515726	0.5043709528335854	0.19546744040711694	0.26833058803065163	0.2888423526767724	0.18548793394566493	0.3032023823658911	0.4541473168286629	0.34370484614530294	0.47897699676068156	0.5137760708810142	0.33042076207600574	0.4197619032196719	0.7158026696873969	0.23224405692641648	0.20586079130029522	0.6988414454265466	0.21299947789296614	0.06675682661778155	0.6883743419472415	0.2040310248056502	0.055460272325468164	0.6969350857573429	0.2109160926141063	0.07232247632320431	0.7581133794055757	0.06017969455203648	0.4909734225874338	0.5187282993339434	0.07031912846372974	0.4906892781486874	0.7210673559465858	0.15688770723834722	0.21921659561792536	0.725400600600758	0.22124009165238598	0.07439706502302104	0.6905647197322669	0.20812477055314862	0.03845237375559732	0.7017823040797762	0.20561232756982106	0.10983690150686992	0.7554931320423035
122	2.489795918367347	0.31727538012537754	0.6842928496892848	0.9372189863929831	0.30374089547122907	0.7426154062627051	1.3516301853912296	0.28708706120600147	0.9176672994214443	1.776156584671518	0.3021832087443911	0.7169705857505954	1.8314309102000532	0.3646686770046769	0.7432132172883595	1.8119947151835054	0.27499082858368357	0.9812654479127367	1.831157098405467	0.1078784473742879	0.6742605125279117	0.9443407945560802	0.10725849617919957	0.7621404920203497	1.365749425280533	0.13501920274980514	0.8745517376502396	1.7715328061298752	0.15117233969308588	0.7238273503801441	1.8334484280426413	0.08376354783220022	0.7553368397689054	1.8207247203277266	0.15912136880568856	0.9586654706086042	1.8374220467713336	0.21668149751633492	0.4698185198055987	0.5066262847858435	0.20300264309850044	0.26040478192073147	0.291077920476037	0.18900158905727282	0.30654066967737	0.45709537121436383	0.3462415645787194	0.4770107140802317	0.516977123670658	0.33022301949795707	0.40729321234905824	0.7160306428838623	0.22612530448092397	0.20445764584736337	0.6987821758710482	0.1812497105639302	0.07124727208815929	0.6890259150976237	0.17765139883867093	0.05387239934984564	0.7019361724231349	0.18521358720270223	0.07820179427006196	0.7633946409358722	0.05970798500286992	0.4896420866570947	0.5184466312453768	0.06999487188376258	0.4892995867941323	0.7206877908209919	0.14784524933747858	0.212336167752782	0.7255934068678448	0.19936743931184892	0.07331991611752403	0.6936742861211411	0.18963663074176812	0.043593465211606036	0.7108648009083556	0.18493459339180893	0.10686879687127113	0.7553242581925409
